@startuml
abstract "gui::internal::Base" as C_0000175824954716261305
abstract C_0000175824954716261305 {
+Base() = default : void
+Base() = default : void
+Base() = default : void
+operator=() = default : gui::internal::Base &
+operator=() = default : gui::internal::Base &
+~Base() = default : void
{abstract} +update() = 0 : void
{abstract} +render() = 0 : void
{abstract} -render_link() = 0 : void
}
class "gui::GuiElement<T>" as C_0002044747090333057839
class C_0002044747090333057839 {
+GuiElement<T>() = default : void
+GuiElement<T>() : void
+render() : void
+set_pos() : void
+set_color_index() : void
+get_pos() const : Vector2
+get_value() : T &
+get_value() const : T
+set_value() : void
+set_index() : void
-m_value : T
-m_index : std::size_t
-m_pos : Vector2
-m_color_index : int
{static} +side : const int
{static} +init_pos : const Vector2
{static} -eps : const float
}
class "gui::GuiDynamicArray<T>" as C_0000068279211946526198
class C_0000068279211946526198 {
+GuiDynamicArray<T>() : void
+GuiDynamicArray<T>() : void
+GuiDynamicArray<T>() : void
+GuiDynamicArray<T>() : void
+operator=() : GuiDynamicArray<T> &
+operator=() : GuiDynamicArray<T> &
+~GuiDynamicArray<T>() : void
+update() : void
+render() : void
+operator[]() : T &
+operator[]() const : T
+set_color_index() : void
+reserve() : void
+shrink_to_fit() : void
+capacity() const : std::size_t
+size() const : std::size_t
+push() : void
+pop() : void
-render_link() : void
-m_capacity : std::size_t
-m_size : std::size_t
{static} -head_pos : const Vector2
}
class "gui::GuiNode<T>" as C_0001747959826151301658
class C_0001747959826151301658 {
+GuiNode<T>() : void
+render() : void
+set_pos() : void
+get_pos() const : Vector2
+set_color_index() : void
+set_value() : void
+get_value() : T &
+set_label() : void
-m_value : T
-m_color_index : int
-m_pos : Vector2
-m_label : const char *
{static} +radius : const int
{static} -eps : const float
}
class "gui::GuiQueue<T>" as C_0000537993261370672901
class C_0000537993261370672901 {
+GuiQueue<T>() : void
+push() : void
+pop() : void
+push_front() : void
+pop_back() : void
+update() : void
+render() : void
+init_label() : void
-render_link() : void
{static} -head_pos : const Vector2
}
class "gui::GuiCircularLinkedList<T>" as C_0000636823269603515495
class C_0000636823269603515495 {
+GuiCircularLinkedList<T>() : void
+insert() : void
+update() : void
+render() : void
+init_label() : void
-render_link() : void
-render_back_link() : void
{static} -head_pos : const Vector2
}
class "gui::GuiDoublyLinkedList<T>" as C_0001770119980623113789
class C_0001770119980623113789 {
+GuiDoublyLinkedList<T>() : void
+insert() : void
+update() : void
+render() : void
+init_label() : void
-render_link() : void
{static} -head_pos : const Vector2
}
class "gui::GuiLinkedList<T>" as C_0001460638568713575271
class C_0001460638568713575271 {
+GuiLinkedList<T>() : void
+insert() : void
+update() : void
+render() : void
+init_label() : void
-render_link() : void
{static} -head_pos : const Vector2
}
class "gui::GuiStack<T>" as C_0000012620274388027065
class C_0000012620274388027065 {
+GuiStack<T>() : void
+push() : void
+pop() : void
+update() : void
+render() : void
+init_label() : void
-render_link() : void
{static} -head_pos : const Vector2
}
C_0000068279211946526198 --> C_0002044747090333057839 : -m_ptr
C_0000175824954716261305 <|-- C_0000068279211946526198
C_0000175824954716261305 <|-- C_0000537993261370672901
C_0000175824954716261305 <|-- C_0000636823269603515495
C_0000175824954716261305 <|-- C_0001770119980623113789
C_0000175824954716261305 <|-- C_0001460638568713575271
C_0000175824954716261305 <|-- C_0000012620274388027065

'Generated with clang-uml, version 0.3.4
'LLVM version Ubuntu clang version 15.0.7
@enduml
