@startuml
class "scene::internal::SceneOptions" as C_0000784469365298937445
class C_0000784469365298937445 {
+max_size : const std::size_t
+mode_labels : const char *
+mode_selection : int
+action_labels : core::DoublyLinkedList<const char *>
+action_selection : core::DoublyLinkedList<int>
}
class "scene::internal::BaseScene" as C_0000658540208301571902
class C_0000658540208301571902 {
+BaseScene() = default : void
+BaseScene() : void
+BaseScene() : void
+operator=() : scene::internal::BaseScene &
+operator=() : scene::internal::BaseScene &
+~BaseScene() = default : void
+render() : void
+interact() : void
#render_go_button() const : bool
#render_options() : void
#render_inputs() : void
#options_head : float
#m_text_input : component::RandomTextInput
#m_index_input : component::RandomTextInput
#m_file_dialog : component::FileDialog
#m_sequence_controller : component::SequenceController
#m_code_highlighter : component::CodeHighlighter
#m_edit_mode : bool
#m_edit_action : bool
{static} #button_size : const Vector2
{static} #head_offset : const int
}
class "scene::ArrayScene" as C_0000317546188476051030
class C_0000317546188476051030 {
+ArrayScene() : void
+render() : void
+interact() : void
-render_inputs() : void
-interact_random() : void
-interact_import() : void
-interact_file_import() : void
-interact_update() : void
-interact_search() : void
-interact_insert() : void
-interact_delete() : void
-interact_access() : void
-m_array : gui::GuiDynamicArray<int>
-m_sequence : core::DoublyLinkedList<gui::GuiDynamicArray<int>>
-m_go : bool
{static} -max_size : const std::size_t
}
enum "scene::ArrayScene::ModeId" as C_0000361835981476108416
enum C_0000361835981476108416 {
Create
Access
Update
Search
Insert
Delete
}
enum "scene::ArrayScene::CreateActionId" as C_0000855478751692743829
enum C_0000855478751692743829 {
CreateRandom
CreateInput
CreateFile
}
class "scene::DynamicArrayScene" as C_0000993933600604625070
class C_0000993933600604625070 {
+render() : void
+interact() : void
-render_inputs() : void
-interact_random() : void
-interact_import() : void
-interact_file_import() : void
-interact_update() : void
-interact_search() : void
-interact_insert() : void
-interact_delete() : void
-interact_reserve() : void
-interact_shrink() : void
-interact_access() : void
-m_array : gui::GuiDynamicArray<int>
-m_sequence : core::DoublyLinkedList<gui::GuiDynamicArray<int>>
-m_go : bool
{static} -max_size : const std::size_t
}
enum "scene::DynamicArrayScene::ModeId" as C_0002225800839134066840
enum C_0002225800839134066840 {
Create
Access
Allocate
Update
Search
Insert
Delete
}
enum "scene::DynamicArrayScene::CreateActionId" as C_0001703640359096446834
enum C_0001703640359096446834 {
CreateRandom
CreateInput
CreateFile
}
enum "scene::DynamicArrayScene::AllocateActionId" as C_0001166773803800632101
enum C_0001166773803800632101 {
AllocateReserve
AllocateShrink
}
class "scene::QueueScene" as C_0001209706248980343305
class C_0001209706248980343305 {
+render() : void
+interact() : void
-render_inputs() : void
-interact_random() : void
-interact_import() : void
-interact_file_import() : void
-interact_push() : void
-interact_pop() : void
-interact_clear() : void
-m_queue : gui::GuiQueue<int>
-m_sequence : core::DoublyLinkedList<gui::GuiQueue<int>>
-m_go : bool
}
enum "scene::QueueScene::ModeId" as C_0000468128667989312145
enum C_0000468128667989312145 {
Create
Push
Pop
Clear
}
enum "scene::QueueScene::CreateActionId" as C_0000446327291723794367
enum C_0000446327291723794367 {
CreateRandom
CreateInput
CreateFile
}
class "scene::SettingsScene" as C_0001338101111872396075
class C_0001338101111872396075 {
+SettingsScene() : void
+render() : void
+interact() : void
-set_buffer() : void
-set_color() : void
-open_from_file() : void
-m_inputs : std::array<component::TextInput,Settings::num_color>
-m_selected : int
-m_open_file : component::FileDialog
-m_save_file : component::FileDialog
-m_open : int
-m_save : int
{static} -head_pos : const Vector2
}
enum "scene::SceneId" as C_0001841753511386152581
enum C_0001841753511386152581 {
Array
DynamicArray
LinkedList
DoublyLinkedList
CircularLinkedList
Stack
Queue
Menu
Settings
}
class "scene::BaseLinkedListScene<Con>" as C_0000234618355588237115
class C_0000234618355588237115 {
+render() : void
+interact() : void
-render_inputs() : void
-interact_random() : void
-interact_import() : void
-interact_file_import() : void
-interact_add() : void
-interact_add_head() : void
-interact_add_tail() : void
-interact_add_middle() : void
-interact_delete() : void
-interact_delete_head() : void
-interact_delete_tail() : void
-interact_delete_middle() : void
-interact_update() : void
-interact_search() : void
-m_list : Con
-m_sequence : core::DoublyLinkedList<Con>
-m_go : bool
}
enum "scene::BaseLinkedListScene::ModeId" as C_0000063636860346734815
enum C_0000063636860346734815 {
Create
Add
Delete
Update
Search
}
enum "scene::BaseLinkedListScene::CreateActionId" as C_0000087795578027376410
enum C_0000087795578027376410 {
CreateRandom
CreateInput
CreateFile
}
class "scene::MenuScene" as C_0001808605444978889323
class C_0001808605444978889323 {
+MenuScene() : void
+render() : void
+interact() : void
-m_start : bool
-m_quit : bool
-m_menu_items : std::array<component::MenuItem,7>
{static} -labels : const std::array<const char *,7>
{static} -img_paths : const std::array<const char *,7>
}
class "scene::StackScene" as C_0002179233268072534158
class C_0002179233268072534158 {
+render() : void
+interact() : void
-render_inputs() : void
-interact_random() : void
-interact_import() : void
-interact_push() : void
-interact_pop() : void
-interact_file_import() : void
-interact_clear() : void
-m_stack : gui::GuiStack<int>
-m_sequence : core::DoublyLinkedList<gui::GuiStack<int>>
-m_go : bool
}
enum "scene::StackScene::ModeId" as C_0002085464491304365513
enum C_0002085464491304365513 {
Create
Push
Pop
Clear
}
enum "scene::StackScene::CreateActionId" as C_0000226570459225234386
enum C_0000226570459225234386 {
CreateRandom
CreateInput
CreateFile
}
class "scene::SceneRegistry" as C_0001036623045197935261
class C_0001036623045197935261 {
+SceneRegistry() : void
+SceneRegistry() : void
+operator=() : scene::SceneRegistry &
+operator=() : scene::SceneRegistry &
+~SceneRegistry() = default : void
{static} +get_instance() : scene::SceneRegistry &
+set_scene() : void
+get_scene() const : scene::SceneId
+render() : void
+interact() : void
+should_close() const : bool
+close_window() : void
-SceneRegistry() : void
-m_should_close : bool
}
C_0000658540208301571902 ..> C_0000784469365298937445
C_0000317546188476051030 o-- C_0000784469365298937445 : -scene_options
C_0000658540208301571902 <|-- C_0000317546188476051030
C_0000361835981476108416 --+ C_0000317546188476051030
C_0000855478751692743829 --+ C_0000317546188476051030
C_0000993933600604625070 o-- C_0000784469365298937445 : -scene_options
C_0000658540208301571902 <|-- C_0000993933600604625070
C_0002225800839134066840 --+ C_0000993933600604625070
C_0001703640359096446834 --+ C_0000993933600604625070
C_0001166773803800632101 --+ C_0000993933600604625070
C_0001209706248980343305 o-- C_0000784469365298937445 : -scene_options
C_0000658540208301571902 <|-- C_0001209706248980343305
C_0000468128667989312145 --+ C_0001209706248980343305
C_0000446327291723794367 --+ C_0001209706248980343305
C_0000658540208301571902 <|-- C_0001338101111872396075
C_0000234618355588237115 o-- C_0000784469365298937445 : -scene_options
C_0000658540208301571902 <|-- C_0000234618355588237115
C_0000063636860346734815 --+ C_0000234618355588237115
C_0000087795578027376410 --+ C_0000234618355588237115
C_0001808605444978889323 o-- C_0001841753511386152581 : -m_next_scene
C_0000658540208301571902 <|-- C_0001808605444978889323
C_0002179233268072534158 o-- C_0000784469365298937445 : -scene_options
C_0000658540208301571902 <|-- C_0002179233268072534158
C_0002085464491304365513 --+ C_0002179233268072534158
C_0000226570459225234386 --+ C_0002179233268072534158
C_0001036623045197935261 ..> C_0001841753511386152581
C_0001036623045197935261 --> C_0000658540208301571902 : -scene_ptr
C_0001036623045197935261 o-- C_0001841753511386152581 : -m_current_scene
C_0001036623045197935261 o-- C_0000658540208301571902 : -m_registry

'Generated with clang-uml, version 0.3.4
'LLVM version Ubuntu clang version 15.0.7
@enduml
